<svg xmlns="http://www.w3.org/2000/svg" xmlns:xlink="http://www.w3.org/1999/xlink" width="256" height="256" viewBox="0 0 67.733335 67.733335">
  <defs>
    <linearGradient id="a">
      <stop offset="0" stop-color="#00bbc0"/>
      <stop offset="1" stop-color="#00bbc0" stop-opacity="0"/>
    </linearGradient>
    <linearGradient xlink:href="#a" id="b" x1="324.83368" x2="323.96552" y1="232.91293" y2="209.68188" gradientTransform="translate(-243.81265 -156.79042)" gradientUnits="userSpaceOnUse"/>
  </defs>
  <path fill="#004f86" d="M33.866667 63.500003 4.537268 46.566668l29.329409-16.933333 29.329386 16.933333Z"/>
  <path fill="#007896" d="M48.531357 46.566638c-7.33234 2.11668-14.6647 8.46668-14.6647 8.46668s-7.33236-2.11669-14.6647-8.46668c-7.33234-6.34998-14.664689-8.46665-14.664689-8.46665l29.329399-16.933333 29.329396 16.933333s-7.33237 6.34997-14.664706 8.46665z"/>
  <path fill="#0093a4" d="M48.531357 38.099968c-7.33234 0-14.6647 8.46667-14.6647 8.46667s-7.33236 0-14.6647-8.46667c-7.33235-8.466673-14.664699-8.466653-14.664699-8.466653l29.329409-16.93334 29.329396 16.93334s-7.33237 8.466653-14.664706 8.466653z"/>
  <path fill="#00bbc0" d="M48.608907 29.659155c-7.33235-4.23334-14.6647 8.466673-14.6647 8.466673s-7.33237 4.23334-14.66471-8.466673c-7.33235-12.69999-14.664699-8.46666-14.664699-8.46666s7.332349-12.7 14.664709-8.46667c7.33235 4.23334 14.66471-8.46666 14.66471-8.46666s7.33234-4.23333 14.66469 8.46667c7.332336 12.69999 14.664696 8.46666 14.664696 8.46666s-7.33235 12.700003-14.664696 8.46666z"/>
  <path fill="#fff" d="M25.977347 35.758208c-.4938-2.504683 1.02375-4.515373 1.48697-5.197883-3.83912-5.40758 1.69359-12.21773 1.68269-13.34231-.19429-.68647-.33896-1.88199-1.41343-1.95834.54334-1.43678 2.33298-.80014 5.34246-.36491 10.29798-3.1695 15.82101 1.16673 16.15439 2.44188 1.03147.31539 1.74342.74407 1.56181 1.40575-.63512.53192-4.33082.0123-8.53056.89973-1.46445 1.97807-3.63278 1.36306-4.2555 1.38442-1.03345.0905-6.08884 2.41501-6.95818 3.31323-1.02036 1.1049-2.62164 3.66674-2.15474 5.61699.61571-.36775 1.73711-.30136 2.22553 2.00986-.69786-1.29987-4.1279 1.50724-5.14144 3.791583z"/>
  <path fill="url(#b)" d="M51.691655 59.189172s7.332339-4.23334 14.664689 8.46667c7.33235 12.700003 14.66469 8.466663 14.66469 8.466663l6.88788-12.511393s-9.57979-.16204-12.24825-1.68148c-2.66846-1.51943-2.8999-5.58802-2.8999-5.58802z" transform="translate(-47.154367 -38.022517)"/>
  <path fill="#fff" d="M26.814597 19.709265s.28181-1.33315.0781-1.58824c-.15941-.19865-.64-.16173-.76162.062-.15847.29147.68355 1.52616.68355 1.52616zM33.295357 23.814675s1.35425.15069 1.58825-.0778c.18211-.17809.0983-.65276-.13622-.7519-.30557-.12908-1.45196.82961-1.45196.82961zM31.786487 24.493345s1.05755.85922 1.37794.79362c.24948-.0513.43571-.49586.29202-.70615-.18719-.27389-1.66996-.0875-1.66996-.0875zM26.586917 21.378915s-.49663-1.26888-.80773-1.36975c-.24242-.0782-.62353.21673-.6022.47045.028.33054 1.40987.89925 1.40987.89925z"/>
  <path fill="none" stroke="#fff" stroke-opacity=".65198239" stroke-width=".21745117" d="M26.380147 22.269775c-.7297 1.77916 3.99721 3.91966 4.83619 2.76864"/>
  <path fill="none" stroke="#fff" stroke-opacity=".65198239" stroke-width=".31443846" d="M24.952787 22.050615c-1.05516 2.5727 5.78004 5.6679 6.99322 4.00351"/>
</svg>
